<svg width="290" height="60" viewBox="0 0 290 60" fill="none" xmlns="http://www.w3.org/2000/svg">
<path d="M60.9151 24.288C59.6031 24.288 58.3951 23.984 57.2911 23.376C56.1871 22.768 55.2991 21.872 54.6271 20.688C53.9711 19.488 53.6431 18.016 53.6431 16.272C53.6431 14.544 53.9791 13.072 54.6511 11.856C55.3391 10.624 56.2431 9.688 57.3631 9.048C58.4991 8.392 59.7231 8.064 61.0351 8.064C62.0431 8.064 62.9471 8.272 63.7471 8.688C64.5471 9.088 65.2111 9.56 65.7391 10.104L63.8671 12.36C63.4671 11.992 63.0431 11.696 62.5951 11.472C62.1631 11.232 61.6671 11.112 61.1071 11.112C60.4031 11.112 59.7551 11.312 59.1631 11.712C58.5871 12.112 58.1231 12.688 57.7711 13.44C57.4351 14.192 57.2671 15.096 57.2671 16.152C57.2671 17.752 57.6111 19 58.2991 19.896C58.9871 20.792 59.9071 21.24 61.0591 21.24C61.6991 21.24 62.2671 21.096 62.7631 20.808C63.2751 20.52 63.7231 20.176 64.1071 19.776L65.9791 21.984C64.6671 23.52 62.9791 24.288 60.9151 24.288ZM73.8252 24.288C72.4172 24.288 71.1772 23.96 70.1052 23.304C69.0492 22.648 68.2172 21.712 67.6092 20.496C67.0172 19.264 66.7212 17.8 66.7212 16.104C66.7212 14.392 67.0172 12.944 67.6092 11.76C68.2172 10.56 69.0492 9.648 70.1052 9.024C71.1772 8.384 72.4172 8.064 73.8252 8.064C75.2332 8.064 76.4652 8.384 77.5212 9.024C78.5932 9.648 79.4252 10.56 80.0172 11.76C80.6252 12.96 80.9292 14.408 80.9292 16.104C80.9292 17.8 80.6252 19.264 80.0172 20.496C79.4252 21.712 78.5932 22.648 77.5212 23.304C76.4652 23.96 75.2332 24.288 73.8252 24.288ZM73.8252 21.24C74.8972 21.24 75.7452 20.776 76.3692 19.848C76.9932 18.92 77.3052 17.672 77.3052 16.104C77.3052 14.536 76.9932 13.312 76.3692 12.432C75.7452 11.552 74.8972 11.112 73.8252 11.112C72.7532 11.112 71.9052 11.552 71.2812 12.432C70.6572 13.312 70.3452 14.536 70.3452 16.104C70.3452 17.672 70.6572 18.92 71.2812 19.848C71.9052 20.776 72.7532 21.24 73.8252 21.24ZM83.8714 24V8.352H89.2474C90.3994 8.352 91.4394 8.512 92.3674 8.832C93.3114 9.136 94.0634 9.656 94.6234 10.392C95.1834 11.128 95.4634 12.128 95.4634 13.392C95.4634 14.608 95.1834 15.608 94.6234 16.392C94.0634 17.176 93.3194 17.76 92.3914 18.144C91.4634 18.512 90.4474 18.696 89.3434 18.696H87.3994V24H83.8714ZM87.3994 15.888H89.1274C91.0474 15.888 92.0074 15.056 92.0074 13.392C92.0074 12.576 91.7514 12 91.2394 11.664C90.7274 11.328 89.9914 11.16 89.0314 11.16H87.3994V15.888ZM98.1683 24V8.352H102.584C104.184 8.352 105.568 8.624 106.736 9.168C107.904 9.712 108.808 10.56 109.448 11.712C110.104 12.848 110.432 14.312 110.432 16.104C110.432 17.896 110.112 19.376 109.472 20.544C108.832 21.712 107.936 22.584 106.784 23.16C105.648 23.72 104.312 24 102.776 24H98.1683ZM101.696 21.144H102.368C103.264 21.144 104.04 20.984 104.696 20.664C105.368 20.344 105.888 19.816 106.256 19.08C106.624 18.344 106.808 17.352 106.808 16.104C106.808 14.856 106.624 13.88 106.256 13.176C105.888 12.456 105.368 11.952 104.696 11.664C104.04 11.36 103.264 11.208 102.368 11.208H101.696V21.144ZM124.735 24.288C123.423 24.288 122.215 23.984 121.111 23.376C120.007 22.768 119.119 21.872 118.447 20.688C117.791 19.488 117.463 18.016 117.463 16.272C117.463 14.544 117.799 13.072 118.471 11.856C119.159 10.624 120.063 9.688 121.183 9.048C122.319 8.392 123.543 8.064 124.855 8.064C125.863 8.064 126.767 8.272 127.567 8.688C128.367 9.088 129.031 9.56 129.559 10.104L127.687 12.36C127.287 11.992 126.863 11.696 126.415 11.472C125.983 11.232 125.487 11.112 124.927 11.112C124.223 11.112 123.575 11.312 122.983 11.712C122.407 12.112 121.943 12.688 121.591 13.44C121.255 14.192 121.087 15.096 121.087 16.152C121.087 17.752 121.431 19 122.119 19.896C122.807 20.792 123.727 21.24 124.879 21.24C125.519 21.24 126.087 21.096 126.583 20.808C127.095 20.52 127.543 20.176 127.927 19.776L129.799 21.984C128.487 23.52 126.799 24.288 124.735 24.288ZM137 24.288C135.992 24.288 135.04 24.048 134.144 23.568C133.264 23.072 132.552 22.36 132.008 21.432C131.464 20.488 131.192 19.36 131.192 18.048C131.192 16.72 131.464 15.592 132.008 14.664C132.552 13.736 133.264 13.032 134.144 12.552C135.04 12.056 135.992 11.808 137 11.808C138.008 11.808 138.952 12.056 139.832 12.552C140.712 13.032 141.424 13.736 141.968 14.664C142.512 15.592 142.784 16.72 142.784 18.048C142.784 19.36 142.512 20.488 141.968 21.432C141.424 22.36 140.712 23.072 139.832 23.568C138.952 24.048 138.008 24.288 137 24.288ZM137 21.432C137.72 21.432 138.264 21.128 138.632 20.52C139 19.896 139.184 19.072 139.184 18.048C139.184 17.008 139 16.184 138.632 15.576C138.264 14.968 137.72 14.664 137 14.664C136.264 14.664 135.712 14.968 135.344 15.576C134.992 16.184 134.816 17.008 134.816 18.048C134.816 19.072 134.992 19.896 135.344 20.52C135.712 21.128 136.264 21.432 137 21.432ZM148.777 24.288C147.481 24.288 146.537 23.864 145.945 23.016C145.369 22.152 145.081 20.976 145.081 19.488V12.096H148.609V19.032C148.609 19.88 148.729 20.472 148.969 20.808C149.209 21.128 149.585 21.288 150.097 21.288C150.545 21.288 150.921 21.184 151.225 20.976C151.529 20.768 151.857 20.432 152.209 19.968V12.096H155.737V24H152.857L152.593 22.344H152.521C152.025 22.936 151.481 23.408 150.889 23.76C150.297 24.112 149.593 24.288 148.777 24.288ZM163.089 29.064C162.161 29.064 161.321 28.96 160.569 28.752C159.817 28.544 159.217 28.216 158.769 27.768C158.321 27.32 158.097 26.744 158.097 26.04C158.097 25.08 158.665 24.28 159.801 23.64V23.544C159.497 23.336 159.233 23.072 159.009 22.752C158.801 22.432 158.697 22.024 158.697 21.528C158.697 21.096 158.825 20.68 159.081 20.28C159.337 19.88 159.657 19.552 160.041 19.296V19.2C159.625 18.912 159.249 18.496 158.913 17.952C158.593 17.408 158.433 16.792 158.433 16.104C158.433 15.144 158.665 14.352 159.129 13.728C159.593 13.088 160.201 12.608 160.953 12.288C161.705 11.968 162.505 11.808 163.353 11.808C164.057 11.808 164.673 11.904 165.201 12.096H169.545V14.664H167.649C167.761 14.84 167.849 15.064 167.913 15.336C167.993 15.608 168.033 15.904 168.033 16.224C168.033 17.136 167.825 17.888 167.409 18.48C166.993 19.072 166.433 19.512 165.729 19.8C165.025 20.088 164.233 20.232 163.353 20.232C162.889 20.232 162.409 20.152 161.913 19.992C161.625 20.232 161.481 20.528 161.481 20.88C161.481 21.184 161.617 21.408 161.889 21.552C162.161 21.696 162.625 21.768 163.281 21.768H165.201C166.673 21.768 167.793 22.008 168.561 22.488C169.345 22.952 169.737 23.72 169.737 24.792C169.737 25.608 169.465 26.336 168.921 26.976C168.377 27.632 167.609 28.144 166.617 28.512C165.625 28.88 164.449 29.064 163.089 29.064ZM163.353 18.096C163.817 18.096 164.201 17.928 164.505 17.592C164.825 17.256 164.985 16.76 164.985 16.104C164.985 15.48 164.825 15.008 164.505 14.688C164.201 14.352 163.817 14.184 163.353 14.184C162.889 14.184 162.497 14.344 162.177 14.664C161.873 14.984 161.721 15.464 161.721 16.104C161.721 16.76 161.873 17.256 162.177 17.592C162.497 17.928 162.889 18.096 163.353 18.096ZM163.641 26.856C164.441 26.856 165.097 26.712 165.609 26.424C166.121 26.136 166.377 25.792 166.377 25.392C166.377 25.024 166.217 24.776 165.897 24.648C165.593 24.52 165.145 24.456 164.553 24.456H163.329C162.929 24.456 162.593 24.44 162.321 24.408C162.065 24.392 161.841 24.36 161.649 24.312C161.217 24.696 161.001 25.088 161.001 25.488C161.001 25.936 161.241 26.272 161.721 26.496C162.217 26.736 162.857 26.856 163.641 26.856ZM171.662 24V7.176H175.19V11.304L175.022 13.44C175.47 13.04 175.99 12.672 176.582 12.336C177.19 11.984 177.894 11.808 178.694 11.808C179.99 11.808 180.926 12.24 181.502 13.104C182.094 13.952 182.39 15.12 182.39 16.608V24H178.862V17.064C178.862 16.2 178.742 15.608 178.502 15.288C178.278 14.968 177.91 14.808 177.398 14.808C176.95 14.808 176.566 14.912 176.246 15.12C175.926 15.312 175.574 15.592 175.19 15.96V24H171.662ZM190.465 24V8.352H194.881C196.481 8.352 197.865 8.624 199.033 9.168C200.201 9.712 201.105 10.56 201.745 11.712C202.401 12.848 202.729 14.312 202.729 16.104C202.729 17.896 202.409 19.376 201.769 20.544C201.129 21.712 200.233 22.584 199.081 23.16C197.945 23.72 196.609 24 195.073 24H190.465ZM193.993 21.144H194.665C195.561 21.144 196.337 20.984 196.993 20.664C197.665 20.344 198.185 19.816 198.553 19.08C198.921 18.344 199.105 17.352 199.105 16.104C199.105 14.856 198.921 13.88 198.553 13.176C198.185 12.456 197.665 11.952 196.993 11.664C196.337 11.36 195.561 11.208 194.665 11.208H193.993V21.144ZM208.412 24.288C207.324 24.288 206.46 23.944 205.82 23.256C205.18 22.552 204.86 21.696 204.86 20.688C204.86 19.44 205.388 18.464 206.444 17.76C207.5 17.056 209.204 16.584 211.556 16.344C211.524 15.816 211.364 15.4 211.076 15.096C210.804 14.776 210.34 14.616 209.684 14.616C209.188 14.616 208.684 14.712 208.172 14.904C207.66 15.096 207.116 15.36 206.54 15.696L205.268 13.368C206.02 12.904 206.82 12.528 207.668 12.24C208.532 11.952 209.428 11.808 210.356 11.808C211.876 11.808 213.044 12.248 213.86 13.128C214.676 14.008 215.084 15.36 215.084 17.184V24H212.204L211.964 22.776H211.868C211.372 23.224 210.836 23.592 210.26 23.88C209.7 24.152 209.084 24.288 208.412 24.288ZM209.612 21.552C210.012 21.552 210.356 21.464 210.644 21.288C210.948 21.096 211.252 20.848 211.556 20.544V18.456C210.308 18.616 209.444 18.872 208.964 19.224C208.484 19.56 208.244 19.96 208.244 20.424C208.244 20.808 208.364 21.096 208.604 21.288C208.86 21.464 209.196 21.552 209.612 21.552ZM222.23 24.288C220.758 24.288 219.702 23.864 219.062 23.016C218.438 22.168 218.126 21.056 218.126 19.68V14.856H216.494V12.24L218.318 12.096L218.726 8.928H221.654V12.096H224.51V14.856H221.654V19.632C221.654 20.304 221.79 20.792 222.062 21.096C222.35 21.384 222.726 21.528 223.19 21.528C223.382 21.528 223.574 21.504 223.766 21.456C223.974 21.408 224.158 21.352 224.318 21.288L224.87 23.856C224.566 23.952 224.19 24.048 223.742 24.144C223.31 24.24 222.806 24.288 222.23 24.288ZM229.365 24.288C228.277 24.288 227.413 23.944 226.773 23.256C226.133 22.552 225.813 21.696 225.813 20.688C225.813 19.44 226.341 18.464 227.397 17.76C228.453 17.056 230.157 16.584 232.509 16.344C232.477 15.816 232.317 15.4 232.029 15.096C231.757 14.776 231.293 14.616 230.637 14.616C230.141 14.616 229.637 14.712 229.125 14.904C228.613 15.096 228.069 15.36 227.493 15.696L226.221 13.368C226.973 12.904 227.773 12.528 228.621 12.24C229.485 11.952 230.381 11.808 231.309 11.808C232.829 11.808 233.997 12.248 234.813 13.128C235.629 14.008 236.037 15.36 236.037 17.184V24H233.157L232.917 22.776H232.821C232.325 23.224 231.789 23.592 231.213 23.88C230.653 24.152 230.037 24.288 229.365 24.288ZM230.565 21.552C230.965 21.552 231.309 21.464 231.597 21.288C231.901 21.096 232.205 20.848 232.509 20.544V18.456C231.261 18.616 230.397 18.872 229.917 19.224C229.437 19.56 229.197 19.96 229.197 20.424C229.197 20.808 229.317 21.096 229.557 21.288C229.813 21.464 230.149 21.552 230.565 21.552ZM66.458 54.288C65.146 54.288 63.938 53.984 62.834 53.376C61.73 52.768 60.842 51.872 60.17 50.688C59.514 49.488 59.186 48.016 59.186 46.272C59.186 44.544 59.522 43.072 60.194 41.856C60.882 40.624 61.786 39.688 62.906 39.048C64.042 38.392 65.266 38.064 66.578 38.064C67.586 38.064 68.49 38.272 69.29 38.688C70.09 39.088 70.754 39.56 71.282 40.104L69.41 42.36C69.01 41.992 68.586 41.696 68.138 41.472C67.706 41.232 67.21 41.112 66.65 41.112C65.946 41.112 65.298 41.312 64.706 41.712C64.13 42.112 63.666 42.688 63.314 43.44C62.978 44.192 62.81 45.096 62.81 46.152C62.81 47.752 63.154 49 63.842 49.896C64.53 50.792 65.45 51.24 66.602 51.24C67.242 51.24 67.81 51.096 68.306 50.808C68.818 50.52 69.266 50.176 69.65 49.776L71.522 51.984C70.21 53.52 68.522 54.288 66.458 54.288ZM78.7228 54.288C77.7148 54.288 76.7628 54.048 75.8668 53.568C74.9868 53.072 74.2748 52.36 73.7308 51.432C73.1868 50.488 72.9148 49.36 72.9148 48.048C72.9148 46.72 73.1868 45.592 73.7308 44.664C74.2748 43.736 74.9868 43.032 75.8668 42.552C76.7628 42.056 77.7148 41.808 78.7228 41.808C79.7308 41.808 80.6748 42.056 81.5548 42.552C82.4348 43.032 83.1468 43.736 83.6908 44.664C84.2348 45.592 84.5068 46.72 84.5068 48.048C84.5068 49.36 84.2348 50.488 83.6908 51.432C83.1468 52.36 82.4348 53.072 81.5548 53.568C80.6748 54.048 79.7308 54.288 78.7228 54.288ZM78.7228 51.432C79.4428 51.432 79.9868 51.128 80.3548 50.52C80.7228 49.896 80.9068 49.072 80.9068 48.048C80.9068 47.008 80.7228 46.184 80.3548 45.576C79.9868 44.968 79.4428 44.664 78.7228 44.664C77.9868 44.664 77.4348 44.968 77.0668 45.576C76.7148 46.184 76.5388 47.008 76.5388 48.048C76.5388 49.072 76.7148 49.896 77.0668 50.52C77.4348 51.128 77.9868 51.432 78.7228 51.432ZM90.1633 54.288C88.9473 54.288 88.0993 53.928 87.6193 53.208C87.1553 52.472 86.9233 51.504 86.9233 50.304V37.176H90.4513V50.448C90.4513 50.816 90.5153 51.072 90.6433 51.216C90.7873 51.36 90.9313 51.432 91.0753 51.432C91.1553 51.432 91.2193 51.432 91.2673 51.432C91.3313 51.416 91.4113 51.4 91.5073 51.384L91.9393 54C91.7473 54.08 91.4993 54.144 91.1953 54.192C90.9073 54.256 90.5633 54.288 90.1633 54.288ZM97.0305 54.288C95.8145 54.288 94.9665 53.928 94.4865 53.208C94.0225 52.472 93.7905 51.504 93.7905 50.304V37.176H97.3185V50.448C97.3185 50.816 97.3825 51.072 97.5105 51.216C97.6545 51.36 97.7985 51.432 97.9425 51.432C98.0225 51.432 98.0865 51.432 98.1345 51.432C98.1985 51.416 98.2785 51.4 98.3745 51.384L98.8065 54C98.6145 54.08 98.3665 54.144 98.0625 54.192C97.7745 54.256 97.4305 54.288 97.0305 54.288ZM105.986 54.288C104.85 54.288 103.826 54.04 102.914 53.544C102.002 53.048 101.282 52.336 100.754 51.408C100.226 50.48 99.9617 49.36 99.9617 48.048C99.9617 46.752 100.226 45.64 100.754 44.712C101.298 43.784 102.002 43.072 102.866 42.576C103.73 42.064 104.634 41.808 105.578 41.808C106.714 41.808 107.65 42.064 108.386 42.576C109.138 43.072 109.698 43.752 110.066 44.616C110.45 45.464 110.642 46.432 110.642 47.52C110.642 47.824 110.626 48.128 110.594 48.432C110.562 48.72 110.53 48.936 110.498 49.08H103.37C103.53 49.944 103.89 50.584 104.45 51C105.01 51.4 105.682 51.6 106.466 51.6C107.314 51.6 108.17 51.336 109.034 50.808L110.21 52.944C109.602 53.36 108.922 53.688 108.17 53.928C107.418 54.168 106.69 54.288 105.986 54.288ZM103.346 46.752H107.642C107.642 46.096 107.482 45.56 107.162 45.144C106.858 44.712 106.354 44.496 105.65 44.496C105.106 44.496 104.618 44.688 104.186 45.072C103.754 45.44 103.474 46 103.346 46.752ZM118.264 54.288C117.16 54.288 116.16 54.048 115.264 53.568C114.384 53.072 113.68 52.36 113.152 51.432C112.64 50.488 112.384 49.36 112.384 48.048C112.384 46.72 112.672 45.592 113.248 44.664C113.824 43.736 114.584 43.032 115.528 42.552C116.472 42.056 117.488 41.808 118.576 41.808C119.312 41.808 119.96 41.928 120.52 42.168C121.096 42.408 121.608 42.712 122.056 43.08L120.4 45.36C119.84 44.896 119.304 44.664 118.792 44.664C117.944 44.664 117.264 44.968 116.752 45.576C116.256 46.184 116.008 47.008 116.008 48.048C116.008 49.072 116.256 49.896 116.752 50.52C117.264 51.128 117.904 51.432 118.672 51.432C119.056 51.432 119.432 51.352 119.8 51.192C120.168 51.016 120.504 50.808 120.808 50.568L122.2 52.872C121.608 53.384 120.968 53.752 120.28 53.976C119.592 54.184 118.92 54.288 118.264 54.288ZM128.632 54.288C127.16 54.288 126.104 53.864 125.464 53.016C124.84 52.168 124.528 51.056 124.528 49.68V44.856H122.896V42.24L124.72 42.096L125.128 38.928H128.056V42.096H130.912V44.856H128.056V49.632C128.056 50.304 128.192 50.792 128.464 51.096C128.752 51.384 129.128 51.528 129.592 51.528C129.784 51.528 129.976 51.504 130.168 51.456C130.376 51.408 130.56 51.352 130.72 51.288L131.272 53.856C130.968 53.952 130.592 54.048 130.144 54.144C129.712 54.24 129.208 54.288 128.632 54.288ZM133.236 54V42.096H136.764V54H133.236ZM134.988 40.344C134.396 40.344 133.916 40.176 133.548 39.84C133.18 39.504 132.996 39.056 132.996 38.496C132.996 37.936 133.18 37.488 133.548 37.152C133.916 36.816 134.396 36.648 134.988 36.648C135.58 36.648 136.06 36.816 136.428 37.152C136.796 37.488 136.98 37.936 136.98 38.496C136.98 39.056 136.796 39.504 136.428 39.84C136.06 40.176 135.58 40.344 134.988 40.344ZM144.981 54.288C143.973 54.288 143.021 54.048 142.125 53.568C141.245 53.072 140.533 52.36 139.989 51.432C139.445 50.488 139.173 49.36 139.173 48.048C139.173 46.72 139.445 45.592 139.989 44.664C140.533 43.736 141.245 43.032 142.125 42.552C143.021 42.056 143.973 41.808 144.981 41.808C145.989 41.808 146.933 42.056 147.813 42.552C148.693 43.032 149.405 43.736 149.949 44.664C150.493 45.592 150.765 46.72 150.765 48.048C150.765 49.36 150.493 50.488 149.949 51.432C149.405 52.36 148.693 53.072 147.813 53.568C146.933 54.048 145.989 54.288 144.981 54.288ZM144.981 51.432C145.701 51.432 146.245 51.128 146.613 50.52C146.981 49.896 147.165 49.072 147.165 48.048C147.165 47.008 146.981 46.184 146.613 45.576C146.245 44.968 145.701 44.664 144.981 44.664C144.245 44.664 143.693 44.968 143.325 45.576C142.973 46.184 142.797 47.008 142.797 48.048C142.797 49.072 142.973 49.896 143.325 50.52C143.693 51.128 144.245 51.432 144.981 51.432ZM153.181 54V42.096H156.061L156.301 43.608H156.397C156.909 43.128 157.469 42.712 158.077 42.36C158.701 41.992 159.413 41.808 160.213 41.808C161.509 41.808 162.445 42.24 163.021 43.104C163.613 43.952 163.909 45.12 163.909 46.608V54H160.381V47.064C160.381 46.2 160.261 45.608 160.021 45.288C159.797 44.968 159.429 44.808 158.917 44.808C158.469 44.808 158.085 44.912 157.765 45.12C157.445 45.312 157.093 45.592 156.709 45.96V54H153.181ZM176.784 54.288C175.76 54.288 174.736 54.096 173.712 53.712C172.704 53.328 171.8 52.768 171 52.032L173.016 49.608C173.576 50.088 174.2 50.48 174.888 50.784C175.576 51.088 176.24 51.24 176.88 51.24C177.616 51.24 178.16 51.104 178.512 50.832C178.88 50.56 179.064 50.192 179.064 49.728C179.064 49.232 178.856 48.872 178.44 48.648C178.04 48.408 177.496 48.144 176.808 47.856L174.768 46.992C174.24 46.768 173.736 46.472 173.256 46.104C172.776 45.72 172.384 45.248 172.08 44.688C171.776 44.128 171.624 43.472 171.624 42.72C171.624 41.856 171.856 41.072 172.32 40.368C172.8 39.664 173.456 39.104 174.288 38.688C175.136 38.272 176.104 38.064 177.192 38.064C178.088 38.064 178.984 38.24 179.88 38.592C180.776 38.944 181.56 39.456 182.232 40.128L180.432 42.36C179.92 41.96 179.408 41.656 178.896 41.448C178.384 41.224 177.816 41.112 177.192 41.112C176.584 41.112 176.096 41.24 175.728 41.496C175.376 41.736 175.2 42.08 175.2 42.528C175.2 43.008 175.424 43.368 175.872 43.608C176.336 43.848 176.904 44.104 177.576 44.376L179.592 45.192C180.536 45.576 181.288 46.104 181.848 46.776C182.408 47.448 182.688 48.336 182.688 49.44C182.688 50.304 182.456 51.104 181.992 51.84C181.528 52.576 180.856 53.168 179.976 53.616C179.096 54.064 178.032 54.288 176.784 54.288ZM188.96 54.288C187.488 54.288 186.432 53.864 185.792 53.016C185.168 52.168 184.856 51.056 184.856 49.68V44.856H183.224V42.24L185.048 42.096L185.456 38.928H188.384V42.096H191.24V44.856H188.384V49.632C188.384 50.304 188.52 50.792 188.792 51.096C189.08 51.384 189.456 51.528 189.92 51.528C190.112 51.528 190.304 51.504 190.496 51.456C190.704 51.408 190.888 51.352 191.048 51.288L191.6 53.856C191.296 53.952 190.92 54.048 190.472 54.144C190.04 54.24 189.536 54.288 188.96 54.288ZM197.14 54.288C195.844 54.288 194.9 53.864 194.308 53.016C193.732 52.152 193.444 50.976 193.444 49.488V42.096H196.972V49.032C196.972 49.88 197.092 50.472 197.332 50.808C197.572 51.128 197.948 51.288 198.46 51.288C198.908 51.288 199.284 51.184 199.588 50.976C199.892 50.768 200.22 50.432 200.572 49.968V42.096H204.1V54H201.22L200.956 52.344H200.884C200.388 52.936 199.844 53.408 199.252 53.76C198.66 54.112 197.956 54.288 197.14 54.288ZM211.453 54.288C209.981 54.288 208.797 53.736 207.901 52.632C207.021 51.512 206.581 49.984 206.581 48.048C206.581 46.752 206.813 45.64 207.277 44.712C207.757 43.768 208.373 43.048 209.125 42.552C209.893 42.056 210.693 41.808 211.525 41.808C212.181 41.808 212.733 41.92 213.181 42.144C213.629 42.368 214.053 42.672 214.453 43.056L214.309 41.232V37.176H217.837V54H214.957L214.717 52.824H214.621C214.205 53.24 213.717 53.592 213.157 53.88C212.597 54.152 212.029 54.288 211.453 54.288ZM212.365 51.408C212.749 51.408 213.093 51.328 213.397 51.168C213.717 51.008 214.021 50.728 214.309 50.328V45.456C214.005 45.168 213.677 44.968 213.325 44.856C212.989 44.744 212.661 44.688 212.341 44.688C211.781 44.688 211.285 44.96 210.853 45.504C210.421 46.032 210.205 46.864 210.205 48C210.205 49.168 210.389 50.032 210.757 50.592C211.141 51.136 211.677 51.408 212.365 51.408ZM222.282 58.656C221.93 58.656 221.618 58.632 221.346 58.584C221.09 58.536 220.842 58.48 220.602 58.416L221.226 55.728C221.338 55.744 221.466 55.768 221.61 55.8C221.754 55.848 221.89 55.872 222.018 55.872C222.61 55.872 223.066 55.728 223.386 55.44C223.706 55.152 223.946 54.776 224.106 54.312L224.274 53.688L219.69 42.096H223.242L224.946 47.208C225.122 47.752 225.282 48.304 225.426 48.864C225.57 49.424 225.722 50 225.882 50.592H225.978C226.106 50.032 226.234 49.472 226.362 48.912C226.506 48.336 226.65 47.768 226.794 47.208L228.234 42.096H231.618L227.49 54.12C227.122 55.112 226.714 55.944 226.266 56.616C225.818 57.304 225.274 57.816 224.634 58.152C224.01 58.488 223.226 58.656 222.282 58.656Z" fill="#3578DE"/>
</svg>
